<svg width="31" height="44" viewBox="0 0 31 44" fill="none" xmlns="http://www.w3.org/2000/svg">
<g clip-path="url(#clip0)">
<path d="M23.4128 21.7183C23.4128 21.7183 15.8257 28.3845 15.8257 36.3386C15.8257 40.5754 19.2211 44.0073 23.4128 44.0073C27.6045 44.0073 30.9999 40.5754 30.9999 36.3386C30.9999 28.3845 23.4128 21.7183 23.4128 21.7183ZM23.6734 41.3876C23.5359 41.7755 23.1739 42.0169 22.7902 42.0169C22.6816 42.0169 22.5802 42.0023 22.4716 41.9584C20.3577 41.1974 18.6926 39.5436 17.9035 37.4216C17.7225 36.9313 17.9686 36.3825 18.4537 36.1922C18.9387 36.0093 19.4817 36.2581 19.6699 36.7484C20.2636 38.3436 21.5233 39.5949 23.116 40.1656C23.5938 40.3486 23.8472 40.8901 23.6734 41.3876Z" fill="#526885"/>
<path d="M0.825315 4.65398H1.10042V13.9106H24.2744V4.65398H24.5495C25.0056 4.65398 25.3748 4.28079 25.3748 3.81979C25.3748 3.35879 25.0056 2.9856 24.5495 2.9856H0.825315C0.36922 2.99291 0 3.3661 0 3.81979C0 4.27347 0.36922 4.65398 0.825315 4.65398Z" fill="#526885"/>
<path d="M20.8428 0.834193C20.8428 0.373191 20.4736 0 20.0175 0H15.6954C15.2393 0 14.8701 0.373191 14.8701 0.834193V1.89523H20.8356V0.834193H20.8428Z" fill="#526885"/>
<path d="M14.8412 36.3386C14.8412 33.3603 15.862 30.1553 17.8022 26.9941H0.825315C0.36922 26.9941 0 27.3673 0 27.8283C0 28.2893 0.36922 28.6625 0.825315 28.6625H1.10042V39.0021H0.825315C0.36922 38.9948 0 39.368 0 39.829C0 40.29 0.36922 40.6632 0.825315 40.6632H15.9851C15.2539 39.3826 14.8412 37.9118 14.8412 36.3386Z" fill="#526885"/>
<path d="M18.4103 26.0501C18.5406 25.8525 18.6782 25.655 18.8157 25.4647C20.756 22.7426 22.6817 21.0376 22.7613 20.9645L23.4129 20.3937L24.0645 20.9645C24.0789 20.9791 24.1513 21.045 24.2744 21.1547V16.6545H24.5495C25.0056 16.6545 25.3748 16.2813 25.3748 15.8203C25.3748 15.3593 25.0056 14.9861 24.5495 14.9861H0.825315C0.36922 14.9934 0 15.3666 0 15.8203C0 16.2813 0.36922 16.6545 0.825315 16.6545H1.10042V26.0501H18.4103Z" fill="#526885"/>
</g>
<defs>
<clipPath id="clip0">
<rect width="31" height="44" fill="white"/>
</clipPath>
</defs>
</svg>
