<svg width="42" height="40" viewBox="0 0 42 40" fill="none" xmlns="http://www.w3.org/2000/svg">
<path d="M42 20.0593C42 19.0296 41.2875 18.1704 40.3275 17.9185C40.02 14.9556 39.045 12.1778 37.5675 9.73333V9.65185H37.5225C33.975 3.87407 27.5475 0 20.22 0C13.5375 0 7.605 3.22963 3.9225 8.18519C3.8025 8.16296 3.6825 8.14815 3.555 8.14815C2.3175 8.14815 1.305 9.14074 1.305 10.3704C1.305 10.8963 1.4925 11.3704 1.8 11.7481C0.6525 14.2667 0 17.0593 0 20C0 31.0296 9.0675 40 20.22 40C26.925 40 32.88 36.7481 36.5625 31.763C36.75 31.8148 36.9525 31.8519 37.1625 31.8519C38.4 31.8519 39.4125 30.8593 39.4125 29.6296C39.4125 29.0074 39.15 28.4444 38.73 28.037C39.54 26.2148 40.0875 24.2593 40.3125 22.2C41.28 21.9556 42 21.0963 42 20.0593ZM37.665 19.2593H30.87C30.795 16.7926 30.3675 14.4074 29.6025 12.1481C29.9475 11.8963 30.2175 11.5481 30.3675 11.1407H36.6525C37.8075 13.2296 38.565 15.563 38.835 18.037C38.3025 18.2741 37.875 18.7111 37.665 19.2593ZM3.8025 28.8889C2.4525 26.4519 1.635 23.6815 1.515 20.7407H9.57C9.645 23.2074 10.0725 25.5926 10.8375 27.8519C10.485 28.1111 10.2075 28.4741 10.0575 28.8889H3.8025ZM3.555 12.5926C4.5225 12.5926 5.34 11.9852 5.655 11.1407H11.1975C10.2075 13.6889 9.6525 16.4222 9.57 19.2593H1.515C1.6125 16.8815 2.16 14.6148 3.09 12.5407C3.24 12.5778 3.3975 12.5926 3.555 12.5926ZM26.1525 9.65926H20.97V2.25926C23.2875 4.15556 25.1625 6.42222 26.5575 8.94815C26.3775 9.15555 26.2425 9.39259 26.1525 9.65926ZM19.47 9.65926H13.4925C14.9175 6.84444 16.935 4.33333 19.47 2.25926V9.65926ZM19.47 11.1407V17.8741C18.78 18.0741 18.225 18.5926 17.985 19.2593H11.07C11.16 16.4148 11.76 13.6741 12.8175 11.1407H19.47ZM14.28 28.8889C13.98 28.0593 13.2075 27.4593 12.2775 27.4148C11.5575 25.2963 11.145 23.0519 11.0775 20.7407H17.9925C18.2325 21.4074 18.7875 21.9259 19.4775 22.1259V28.8889H14.28ZM14.28 30.3704H19.47V37.7407C17.1525 35.8444 15.2775 33.5778 13.8825 31.0518C14.055 30.8518 14.19 30.6222 14.28 30.3704ZM20.97 30.3704H26.9325C25.5075 33.1704 23.4975 35.6741 20.97 37.7407V30.3704ZM20.97 28.8889V22.0444C21.5475 21.8 21.9975 21.3259 22.2075 20.7407H29.37C29.28 23.6 28.68 26.3481 27.6075 28.8889H20.97ZM22.2075 19.2593C21.9975 18.6741 21.5475 18.1926 20.97 17.9556V11.1481H26.175C26.4825 11.963 27.255 12.5481 28.17 12.5852C28.89 14.7037 29.3025 16.9481 29.37 19.2593H22.2075ZM35.745 9.65926H30.39C30.09 8.78518 29.2575 8.14815 28.2675 8.14815C28.125 8.14815 27.9825 8.16296 27.8475 8.19259C26.49 5.74074 24.69 3.52593 22.5075 1.62963C28.0125 2.2963 32.7825 5.32593 35.745 9.65926ZM17.925 1.62222C15.315 3.8963 13.2525 6.62222 11.835 9.65926H5.6775C5.58 9.37778 5.43 9.12593 5.235 8.9037C8.22 4.97037 12.75 2.25185 17.925 1.62222ZM4.7175 30.3704H10.065C10.3725 31.2296 11.1975 31.8519 12.1725 31.8519C12.315 31.8519 12.4575 31.837 12.5925 31.8074C13.95 34.2593 15.75 36.4741 17.9325 38.3704C12.4425 37.7111 7.68 34.6889 4.7175 30.3704ZM22.515 38.3778C25.1175 36.1111 27.1725 33.3926 28.59 30.3704H35.055C35.1225 30.563 35.2125 30.7481 35.3325 30.9111C32.355 34.9407 27.765 37.7333 22.515 38.3778ZM37.1625 27.4074C36.1875 27.4074 35.3625 28.0296 35.055 28.8889H29.2275C30.225 26.3333 30.7875 23.5852 30.87 20.7407H37.6275C37.8225 21.3333 38.2575 21.8222 38.82 22.0815C38.61 23.963 38.1075 25.763 37.365 27.4296C37.2975 27.4222 37.23 27.4074 37.1625 27.4074Z" fill="#526885"/>
</svg>
