<svg id="Layer_1" data-name="Layer 1" xmlns="http://www.w3.org/2000/svg" viewBox="0 0 240.23 31.82">
  <g>
    <g>
      <path d="M55.1,26.2v2.25H44.43V11.35H55.09V13.6H47.22v5.15h6.29v2.17H47.22V26.2Z" transform="translate(-4.22 -4.76)" style="fill: #1b365d"/>
      <path d="M59.89,17.94a7.85,7.85,0,0,1,.81-.73,5.21,5.21,0,0,1,.9-.56,4.69,4.69,0,0,1,2.17-.5,4.34,4.34,0,0,1,1.75.33,3.51,3.51,0,0,1,1.27.94,4,4,0,0,1,.78,1.45,6.5,6.5,0,0,1,.26,1.87v7.71H65.29V20.74a2.93,2.93,0,0,0-.56-1.9A2.12,2.12,0,0,0,63,18.17a3.27,3.27,0,0,0-1.58.39,5.47,5.47,0,0,0-1.38,1.07v8.82H57.5V16.34h1.55a.63.63,0,0,1,.66.49Z" transform="translate(-4.22 -4.76)" style="fill: #1b365d"/>
      <path d="M72.88,22.6a6.43,6.43,0,0,0,.32,1.78,3.89,3.89,0,0,0,.73,1.25,2.88,2.88,0,0,0,1.1.75,4,4,0,0,0,1.42.24,4.48,4.48,0,0,0,1.29-.17,6.7,6.7,0,0,0,1-.38l.69-.38a1,1,0,0,1,.52-.17.54.54,0,0,1,.47.23l.73.94a4.34,4.34,0,0,1-1,.9,5.68,5.68,0,0,1-1.21.6,6.74,6.74,0,0,1-1.32.34,10,10,0,0,1-1.32.1,6.15,6.15,0,0,1-2.33-.43A5,5,0,0,1,72,27a5.65,5.65,0,0,1-1.24-2,7.93,7.93,0,0,1-.44-2.79,7,7,0,0,1,.39-2.35,5.87,5.87,0,0,1,1.14-1.9,5.47,5.47,0,0,1,1.81-1.27,5.94,5.94,0,0,1,2.4-.47,5.85,5.85,0,0,1,2.07.36,4.51,4.51,0,0,1,1.63,1.06,4.94,4.94,0,0,1,1.08,1.72,6.43,6.43,0,0,1,.39,2.31,1.55,1.55,0,0,1-.14.79.5.5,0,0,1-.47.21ZM79,21a3.76,3.76,0,0,0-.18-1.19,2.79,2.79,0,0,0-.54-1,2.6,2.6,0,0,0-.88-.64A3.12,3.12,0,0,0,76.15,18a3,3,0,0,0-2.19.8A3.83,3.83,0,0,0,73,21Z" transform="translate(-4.22 -4.76)" style="fill: #1b365d"/>
      <path d="M86.28,18.58a5.54,5.54,0,0,1,1.37-1.81,3,3,0,0,1,1.94-.66,2.94,2.94,0,0,1,.74.09,2.1,2.1,0,0,1,.61.27l-.18,1.92a.49.49,0,0,1-.14.28.46.46,0,0,1-.27.08,2.41,2.41,0,0,1-.51-.07,4,4,0,0,0-.7-.06,2.79,2.79,0,0,0-1,.15,2.62,2.62,0,0,0-.73.45,3.06,3.06,0,0,0-.58.73,7.33,7.33,0,0,0-.46,1v7.53H83.87V16.34h1.48a.8.8,0,0,1,.56.15.93.93,0,0,1,.21.51Z" transform="translate(-4.22 -4.76)" style="fill: #1b365d"/>
      <path d="M103.32,16.78v.95c0,.31-.19.51-.57.58l-1.21.2a3.64,3.64,0,0,1,.31,1.53,3.7,3.7,0,0,1-.35,1.62,3.63,3.63,0,0,1-1,1.23,4.5,4.5,0,0,1-1.47.79,6.13,6.13,0,0,1-1.85.27,5.9,5.9,0,0,1-.74,0c-.25,0-.48-.07-.71-.12a1.75,1.75,0,0,0-.51.43.8.8,0,0,0-.17.47.63.63,0,0,0,.35.58,3,3,0,0,0,.9.27,11.53,11.53,0,0,0,1.29.11c.49,0,1,0,1.47.08a12.24,12.24,0,0,1,1.48.2,4.28,4.28,0,0,1,1.29.45,2.53,2.53,0,0,1,.9.85,2.47,2.47,0,0,1,.35,1.38,3.29,3.29,0,0,1-.39,1.54,4.31,4.31,0,0,1-1.14,1.33,6.16,6.16,0,0,1-1.81.93,7.87,7.87,0,0,1-2.43.35A9.67,9.67,0,0,1,95,32.5a5.49,5.49,0,0,1-1.67-.71,3.05,3.05,0,0,1-1-1A2.42,2.42,0,0,1,92,29.55a2.13,2.13,0,0,1,.54-1.46A3.64,3.64,0,0,1,94,27.14a2.05,2.05,0,0,1-.8-.65,1.83,1.83,0,0,1-.3-1.09,2,2,0,0,1,.39-1.12,3,3,0,0,1,1.17-1A4,4,0,0,1,93,22,3.51,3.51,0,0,1,92.51,20a3.57,3.57,0,0,1,.35-1.62,3.49,3.49,0,0,1,1-1.24,4.4,4.4,0,0,1,1.49-.78,6.23,6.23,0,0,1,1.88-.27,5.46,5.46,0,0,1,2.73.65ZM100.76,29a.94.94,0,0,0-.23-.65A1.77,1.77,0,0,0,99.9,28a5,5,0,0,0-.91-.2q-.52-.06-1.11-.09l-1.2-.06c-.41,0-.8-.06-1.18-.11a2.94,2.94,0,0,0-.93.71,1.38,1.38,0,0,0-.37,1,1.27,1.27,0,0,0,.19.66,1.49,1.49,0,0,0,.57.54,3.47,3.47,0,0,0,1,.36,7.49,7.49,0,0,0,1.45.12,4.84,4.84,0,0,0,2.52-.52A1.53,1.53,0,0,0,100.76,29Zm-3.55-6.75A2.41,2.41,0,0,0,99,21.68a2.18,2.18,0,0,0,.59-1.58A2.14,2.14,0,0,0,99,18.52a3,3,0,0,0-3.56,0,2.11,2.11,0,0,0-.6,1.58A2.3,2.3,0,0,0,95,21a1.92,1.92,0,0,0,.45.7,2.1,2.1,0,0,0,.74.45A3.23,3.23,0,0,0,97.21,22.29Z" transform="translate(-4.22 -4.76)" style="fill: #1b365d"/>
      <path d="M116.82,16.34l-6.67,15.55a1.44,1.44,0,0,1-.31.43.9.9,0,0,1-.57.15h-1.88l2.23-4.84-4.94-11.29h2.22a.72.72,0,0,1,.49.15.89.89,0,0,1,.26.35l2.88,6.87c.07.2.14.4.2.59s.11.39.17.6c.06-.21.13-.41.19-.61s.13-.39.21-.59l2.77-6.86a.76.76,0,0,1,.28-.36.74.74,0,0,1,.43-.14Z" transform="translate(-4.22 -4.76)" style="fill: #1b365d"/>
      <path d="M128.22,28.45h-2.79V11.35h2.79Z" transform="translate(-4.22 -4.76)" style="fill: #1b365d"/>
      <path d="M134.29,17.94a9.14,9.14,0,0,1,.82-.73,5.53,5.53,0,0,1,.89-.56,5.09,5.09,0,0,1,1-.37,4.82,4.82,0,0,1,1.17-.13,4.37,4.37,0,0,1,1.75.33,3.6,3.6,0,0,1,1.27.94,4,4,0,0,1,.77,1.45,6.17,6.17,0,0,1,.27,1.87v7.71H139.7V20.74a2.87,2.87,0,0,0-.57-1.9,2.1,2.1,0,0,0-1.71-.67,3.34,3.34,0,0,0-1.59.39,5.43,5.43,0,0,0-1.37,1.07v8.82h-2.55V16.34h1.54a.63.63,0,0,1,.67.49Z" transform="translate(-4.22 -4.76)" style="fill: #1b365d"/>
      <path d="M149,28.64a3.05,3.05,0,0,1-2.32-.85,3.33,3.33,0,0,1-.81-2.39v-7h-1.33a.55.55,0,0,1-.37-.14.53.53,0,0,1-.15-.41v-1l1.95-.29.56-3.5a.73.73,0,0,1,.2-.33.6.6,0,0,1,.38-.12h1.31v4h3.36v1.84h-3.36v6.87a1.45,1.45,0,0,0,.32,1,1.1,1.1,0,0,0,.85.34,1.52,1.52,0,0,0,.51-.08,1.86,1.86,0,0,0,.37-.16l.27-.17a.4.4,0,0,1,.22-.08.38.38,0,0,1,.34.24l.76,1.25a4.1,4.1,0,0,1-1.4.8A5.21,5.21,0,0,1,149,28.64Z" transform="translate(-4.22 -4.76)" style="fill: #1b365d"/>
      <path d="M155.64,22.6a6.08,6.08,0,0,0,.32,1.78,3.89,3.89,0,0,0,.73,1.25,2.88,2.88,0,0,0,1.1.75,3.93,3.93,0,0,0,1.41.24,4.55,4.55,0,0,0,1.3-.17,6.7,6.7,0,0,0,.95-.38l.69-.38a1,1,0,0,1,.52-.17.56.56,0,0,1,.47.23l.73.94a4.34,4.34,0,0,1-1,.9,5.68,5.68,0,0,1-1.21.6,6.74,6.74,0,0,1-1.32.34,10,10,0,0,1-1.32.1,6.11,6.11,0,0,1-2.33-.43A5.15,5.15,0,0,1,154.79,27a5.78,5.78,0,0,1-1.23-2,7.93,7.93,0,0,1-.45-2.79,7,7,0,0,1,.4-2.35,5.87,5.87,0,0,1,1.14-1.9,5.47,5.47,0,0,1,1.81-1.27,6.25,6.25,0,0,1,4.47-.11,4.6,4.6,0,0,1,1.63,1.06,4.94,4.94,0,0,1,1.08,1.72A6.43,6.43,0,0,1,164,21.6a1.57,1.57,0,0,1-.13.79.5.5,0,0,1-.47.21ZM161.73,21a3.76,3.76,0,0,0-.18-1.19,2.79,2.79,0,0,0-.54-1,2.54,2.54,0,0,0-.89-.64,3,3,0,0,0-1.21-.23,3,3,0,0,0-2.19.8,3.89,3.89,0,0,0-1,2.23Z" transform="translate(-4.22 -4.76)" style="fill: #1b365d"/>
      <path d="M169.23,10.88V28.45h-2.55V10.88Z" transform="translate(-4.22 -4.76)" style="fill: #1b365d"/>
      <path d="M175.1,10.88V28.45h-2.55V10.88Z" transform="translate(-4.22 -4.76)" style="fill: #1b365d"/>
      <path d="M181.43,12.68a1.51,1.51,0,0,1-.14.66,1.79,1.79,0,0,1-.37.54,1.87,1.87,0,0,1-.55.36,1.67,1.67,0,0,1-.67.14,1.58,1.58,0,0,1-.65-.14,1.77,1.77,0,0,1-.53-.36,2,2,0,0,1-.36-.54,1.66,1.66,0,0,1-.14-.66,1.59,1.59,0,0,1,.14-.66,1.7,1.7,0,0,1,.36-.54,1.64,1.64,0,0,1,.53-.37,1.58,1.58,0,0,1,.65-.14,1.67,1.67,0,0,1,.67.14,1.72,1.72,0,0,1,.55.37,1.58,1.58,0,0,1,.37.54A1.45,1.45,0,0,1,181.43,12.68ZM181,16.34V28.45h-2.55V16.34Z" transform="translate(-4.22 -4.76)" style="fill: #1b365d"/>
      <path d="M194.74,16.78v.95c0,.31-.19.51-.57.58l-1.21.2a3.64,3.64,0,0,1,.31,1.53,3.7,3.7,0,0,1-.35,1.62,3.63,3.63,0,0,1-1,1.23,4.5,4.5,0,0,1-1.47.79,6.13,6.13,0,0,1-1.85.27,5.9,5.9,0,0,1-.74,0c-.25,0-.48-.07-.71-.12a1.75,1.75,0,0,0-.51.43.8.8,0,0,0-.17.47.63.63,0,0,0,.35.58,3,3,0,0,0,.9.27,11.53,11.53,0,0,0,1.29.11c.49,0,1,0,1.47.08a12.24,12.24,0,0,1,1.48.2,4.28,4.28,0,0,1,1.29.45,2.53,2.53,0,0,1,.9.85,2.47,2.47,0,0,1,.35,1.38,3.29,3.29,0,0,1-.39,1.54A4.31,4.31,0,0,1,193,31.48a6.16,6.16,0,0,1-1.81.93,7.87,7.87,0,0,1-2.43.35,9.67,9.67,0,0,1-2.36-.26,5.49,5.49,0,0,1-1.67-.71,3.05,3.05,0,0,1-1-1,2.42,2.42,0,0,1-.33-1.21,2.13,2.13,0,0,1,.54-1.46,3.64,3.64,0,0,1,1.47-.95,2.05,2.05,0,0,1-.8-.65,1.83,1.83,0,0,1-.3-1.09,2,2,0,0,1,.39-1.12,3,3,0,0,1,1.17-1A4,4,0,0,1,184.45,22a3.51,3.51,0,0,1-.52-1.93,3.57,3.57,0,0,1,.35-1.62,3.49,3.49,0,0,1,1-1.24,4.4,4.4,0,0,1,1.49-.78,6.23,6.23,0,0,1,1.88-.27,5.46,5.46,0,0,1,2.73.65ZM192.18,29a.94.94,0,0,0-.23-.65,1.77,1.77,0,0,0-.63-.38,5,5,0,0,0-.91-.2q-.53-.06-1.11-.09l-1.2-.06c-.41,0-.8-.06-1.18-.11a2.94,2.94,0,0,0-.93.71,1.38,1.38,0,0,0-.37,1,1.27,1.27,0,0,0,.19.66,1.49,1.49,0,0,0,.57.54,3.36,3.36,0,0,0,1,.36,7.49,7.49,0,0,0,1.45.12,4.84,4.84,0,0,0,2.52-.52A1.53,1.53,0,0,0,192.18,29Zm-3.55-6.75a2.41,2.41,0,0,0,1.78-.61A2.18,2.18,0,0,0,191,20.1a2.14,2.14,0,0,0-.59-1.58,3,3,0,0,0-3.56,0,2.11,2.11,0,0,0-.6,1.58,2.3,2.3,0,0,0,.16.88,1.92,1.92,0,0,0,.45.7,2.1,2.1,0,0,0,.74.45A3.23,3.23,0,0,0,188.63,22.29Z" transform="translate(-4.22 -4.76)" style="fill: #1b365d"/>
      <path d="M198.45,22.6a6.43,6.43,0,0,0,.32,1.78,3.89,3.89,0,0,0,.73,1.25,2.88,2.88,0,0,0,1.1.75,4,4,0,0,0,1.42.24,4.48,4.48,0,0,0,1.29-.17,6.7,6.7,0,0,0,.95-.38l.69-.38a1,1,0,0,1,.52-.17.54.54,0,0,1,.47.23l.73.94a4.34,4.34,0,0,1-1,.9,5.68,5.68,0,0,1-1.21.6,6.74,6.74,0,0,1-1.32.34,10,10,0,0,1-1.32.1,6.15,6.15,0,0,1-2.33-.43A5,5,0,0,1,197.61,27a5.65,5.65,0,0,1-1.24-2,7.93,7.93,0,0,1-.44-2.79,7,7,0,0,1,.39-2.35,5.87,5.87,0,0,1,1.14-1.9,5.47,5.47,0,0,1,1.81-1.27,5.94,5.94,0,0,1,2.4-.47,5.85,5.85,0,0,1,2.07.36,4.51,4.51,0,0,1,1.63,1.06,4.94,4.94,0,0,1,1.08,1.72,6.43,6.43,0,0,1,.39,2.31,1.55,1.55,0,0,1-.14.79.5.5,0,0,1-.47.21ZM204.54,21a3.76,3.76,0,0,0-.18-1.19,2.79,2.79,0,0,0-.54-1,2.6,2.6,0,0,0-.88-.64,3.12,3.12,0,0,0-1.22-.23,3,3,0,0,0-2.19.8,3.83,3.83,0,0,0-1,2.23Z" transform="translate(-4.22 -4.76)" style="fill: #1b365d"/>
      <path d="M211.82,17.94a7.94,7.94,0,0,1,.82-.73,5.53,5.53,0,0,1,.89-.56,5.09,5.09,0,0,1,1-.37,4.82,4.82,0,0,1,1.17-.13,4.37,4.37,0,0,1,1.75.33,3.6,3.6,0,0,1,1.27.94,4,4,0,0,1,.77,1.45,6.17,6.17,0,0,1,.26,1.87v7.71h-2.54V20.74a2.87,2.87,0,0,0-.56-1.9,2.11,2.11,0,0,0-1.71-.67,3.34,3.34,0,0,0-1.59.39A5.43,5.43,0,0,0,212,19.63v8.82h-2.55V16.34H211a.63.63,0,0,1,.67.49Z" transform="translate(-4.22 -4.76)" style="fill: #1b365d"/>
      <path d="M231.53,18.71a1.07,1.07,0,0,1-.23.24A.46.46,0,0,1,231,19a.75.75,0,0,1-.42-.14l-.52-.31a4.19,4.19,0,0,0-.73-.32,3.61,3.61,0,0,0-1.07-.14,3.29,3.29,0,0,0-1.45.3,2.71,2.71,0,0,0-1.05.85,3.7,3.7,0,0,0-.63,1.34,6.88,6.88,0,0,0-.21,1.77,6.7,6.7,0,0,0,.23,1.82,3.89,3.89,0,0,0,.65,1.34,2.82,2.82,0,0,0,1,.83,3.11,3.11,0,0,0,1.35.28,3.3,3.3,0,0,0,1.19-.17,4,4,0,0,0,.78-.39c.2-.15.38-.28.52-.4a.74.74,0,0,1,.47-.17.56.56,0,0,1,.48.23l.72.94a4.55,4.55,0,0,1-1,.9,5.12,5.12,0,0,1-1.13.6,5.91,5.91,0,0,1-1.23.34,9.36,9.36,0,0,1-1.3.1,5.09,5.09,0,0,1-2.1-.43A4.71,4.71,0,0,1,223.88,27a5.92,5.92,0,0,1-1.16-2,7.7,7.7,0,0,1-.42-2.64,7.91,7.91,0,0,1,.38-2.48,5.79,5.79,0,0,1,1.11-2,5,5,0,0,1,1.81-1.3,6.26,6.26,0,0,1,2.5-.47,5.82,5.82,0,0,1,2.32.43,5.36,5.36,0,0,1,1.78,1.21Z" transform="translate(-4.22 -4.76)" style="fill: #1b365d"/>
      <path d="M236.07,22.6a5.77,5.77,0,0,0,.32,1.78,3.56,3.56,0,0,0,.73,1.25,2.84,2.84,0,0,0,1.09.75,4,4,0,0,0,1.42.24,4.43,4.43,0,0,0,1.29-.17,6.7,6.7,0,0,0,1-.38l.69-.38a1,1,0,0,1,.52-.17.56.56,0,0,1,.48.23l.72.94a4.34,4.34,0,0,1-1,.9,5.46,5.46,0,0,1-1.21.6,6.74,6.74,0,0,1-1.32.34,10,10,0,0,1-1.32.1,6.15,6.15,0,0,1-2.33-.43A5,5,0,0,1,235.22,27a5.65,5.65,0,0,1-1.24-2,8.17,8.17,0,0,1-.44-2.79,6.75,6.75,0,0,1,.4-2.35,5.68,5.68,0,0,1,1.13-1.9,5.47,5.47,0,0,1,1.81-1.27,5.94,5.94,0,0,1,2.4-.47,5.77,5.77,0,0,1,2.07.36A4.64,4.64,0,0,1,243,17.57a4.92,4.92,0,0,1,1.07,1.72,6.43,6.43,0,0,1,.39,2.31,1.7,1.7,0,0,1-.13.79.53.53,0,0,1-.48.21ZM242.16,21a3.76,3.76,0,0,0-.19-1.19,2.79,2.79,0,0,0-.54-1,2.6,2.6,0,0,0-.88-.64,3.09,3.09,0,0,0-1.22-.23,2.94,2.94,0,0,0-2.18.8,3.83,3.83,0,0,0-1,2.23Z" transform="translate(-4.22 -4.76)" style="fill: #1b365d"/>
    </g>
    <g>
      <path d="M27.65,6.83C25.85,5,23.14,4.42,20.17,4.94c0,0,0,.06,0,.06a6.64,6.64,0,0,1,4.71,1.86c3.38,3.42,2,10.4-3.17,15.6s-12,6.64-15.4,3.22A6.85,6.85,0,0,1,4.49,20.8a0,0,0,0,0-.07,0c-.55,3.07,0,5.88,1.85,7.73C10.09,32.4,18,30.69,23.88,24.7s7.59-14,3.77-17.87" transform="translate(-4.22 -4.76)" style="fill: #e9521d"/>
      <path d="M10,13.89c5.38-6.82,11.48-6.26,13-2.06,0,0,0,0,0,0a4.45,4.45,0,0,0-1.53-4.25c-2.78-2.22-8.27-.56-12,4-3.24,4-4.26,8.64-2.68,11.27,0,0,.07,0,.06,0-.39-2.61.7-6,3.1-9" transform="translate(-4.22 -4.76)" style="fill: #e9521d"/>
      <path d="M31.54,18.77s-.17-.18-.27-.07,0,.22,0,.22c2.87,3.78,3.26,8.43.3,11.51-3.54,3.68-10.21,3.49-14.89-.43s-5.6-10.08-2.05-13.76c2.38-2.47,6.15-2.89,9.8-1.91,0,0,.18,0,.21-.08s-.15-.21-.15-.21c-4-1.32-8.19-.8-11,1.76C9.28,19.74,10,27.05,15.14,32.11s12.79,6,17.08,2C36.24,30.41,35.87,23.76,31.54,18.77Z" transform="translate(-4.22 -4.76)" style="fill: #e9521d"/>
    </g>
  </g>
</svg>
