<svg width="39" height="39" viewBox="0 0 39 39" fill="none" xmlns="http://www.w3.org/2000/svg">
<path d="M21.4886 20.1496C21.3105 19.9847 20.9742 19.8792 20.4729 19.8396V22.9264C21.3435 22.7878 21.7722 22.4581 21.7722 21.9502V20.8751C21.7788 20.5585 21.6799 20.3145 21.4886 20.1496Z" fill="#FE5000"/>
<path d="M17.2014 15.6712V16.7463C17.2014 17.2805 17.6895 17.5641 18.6788 17.5905V14.7742C18.1182 14.8137 17.7291 14.8929 17.5114 15.0248C17.3004 15.1435 17.2014 15.3612 17.2014 15.6712Z" fill="#FE5000"/>
<path d="M19.4967 5.5271C11.793 5.5271 5.5271 11.793 5.5271 19.4967C5.5271 27.2004 11.793 33.4662 19.4967 33.4662C27.2004 33.4662 33.4662 27.2004 33.4662 19.4967C33.4662 11.793 27.2004 5.5271 19.4967 5.5271ZM24.6676 21.3368C24.6676 22.4845 24.3115 23.3551 23.5925 23.9421C22.8802 24.5159 21.8381 24.8655 20.4728 24.9974V27.5631H18.6722V25.07C17.6367 25.0436 16.2714 24.9315 14.5763 24.727V22.5241C15.5063 22.6889 16.2054 22.8011 16.6671 22.8472C17.3531 22.9594 18.0258 23.0187 18.6788 23.0187V19.8396H18.316C15.658 19.8396 14.3323 18.7579 14.3323 16.5814V15.9284C14.3323 14.9457 14.6752 14.207 15.3678 13.7057C16.0603 13.1978 17.1618 12.8944 18.6788 12.8087V11.4302H20.4794V12.7691C21.8579 12.8351 23.0517 12.9142 24.0608 13.0197V15.071C22.3987 14.8665 21.2049 14.761 20.4794 14.7478V17.5839H20.73C22.1349 17.5839 23.144 17.8477 23.7574 18.3688C24.3708 18.8899 24.6742 19.6879 24.6742 20.763V21.3368H24.6676Z" fill="#FE5000"/>
<path d="M19.4967 0C8.73262 0 0 8.73262 0 19.4967C0 30.2674 8.73262 38.9934 19.4967 38.9934C30.2674 38.9934 38.9934 30.2608 38.9934 19.4967C39 8.73262 30.2674 0 19.4967 0ZM31.0259 31.0259C27.9457 34.106 23.8564 35.8011 19.5033 35.8011C15.1502 35.8011 11.0543 34.106 7.98072 31.0259C4.90056 27.9457 3.20548 23.8564 3.20548 19.5033C3.20548 15.1502 4.90056 11.0543 7.98072 7.98072C11.0609 4.90056 15.1502 3.20548 19.5033 3.20548C23.8564 3.20548 27.9523 4.90056 31.0259 7.98072C34.106 11.0609 35.8011 15.1502 35.8011 19.5033C35.8011 23.8564 34.0994 27.9457 31.0259 31.0259Z" fill="#FE5000"/>
</svg>
